<svg width="800" height="600" xmlns="http://www.w3.org/2000/svg">
  <defs>
    <marker id="arrowhead" markerWidth="10" markerHeight="7" refX="9" refY="3.5" orient="auto">
      <polygon points="0 0, 10 3.5, 0 7" fill="#333" />
    </marker>
  </defs>

  <rect width="800" height="600" fill="#ffffff"/>

  <text x="400" y="30" text-anchor="middle" font-size="20" font-weight="bold" fill="#333">SCHÉMA ÉLECTRIQUE UNIFILAIRE - SOUS-STATION INDUSTRIELLE</text>
  <text x="400" y="50" text-anchor="middle" font-size="12" fill="#666">13.8kV / 480V - 1000kVA</text>

  <line x1="50" y1="80" x2="50" y2="120" stroke="#333" stroke-width="3"/>
  <rect x="40" y="120" width="20" height="30" fill="none" stroke="#333" stroke-width="2"/>
  <text x="50" y="165" text-anchor="middle" font-size="11" fill="#333">DS1</text>
  <text x="50" y="178" text-anchor="middle" font-size="9" fill="#666">Disconnect</text>
  <text x="50" y="190" text-anchor="middle" font-size="9" fill="#666">13.8kV-600A</text>

  <line x1="50" y1="150" x2="50" y2="200" stroke="#333" stroke-width="3"/>

  <circle cx="50" cy="240" r="40" fill="none" stroke="#333" stroke-width="3"/>
  <circle cx="50" cy="240" r="35" fill="none" stroke="#333" stroke-width="1"/>
  <text x="50" y="235" text-anchor="middle" font-size="14" font-weight="bold" fill="#333">T1</text>
  <text x="50" y="250" text-anchor="middle" font-size="9" fill="#666">1000kVA</text>
  <text x="50" y="295" text-anchor="middle" font-size="10" fill="#333">Transformateur</text>
  <text x="50" y="308" text-anchor="middle" font-size="9" fill="#666">13.8kV/480V</text>

  <line x1="50" y1="280" x2="50" y2="330" stroke="#333" stroke-width="3"/>

  <rect x="30" y="330" width="40" height="25" rx="3" fill="#ffd700" stroke="#333" stroke-width="2"/>
  <text x="50" y="345" text-anchor="middle" font-size="10" font-weight="bold" fill="#333">PM1</text>
  <text x="50" y="375" text-anchor="middle" font-size="9" fill="#666">Power Meter</text>

  <line x1="50" y1="355" x2="50" y2="390" stroke="#333" stroke-width="3"/>
  <line x1="50" y1="390" x2="400" y2="390" stroke="#e74c3c" stroke-width="6"/>

  <rect x="100" y="375" width="600" height="30" fill="#ffebee" stroke="#e74c3c" stroke-width="3" rx="2"/>
  <text x="400" y="395" text-anchor="middle" font-size="14" font-weight="bold" fill="#c62828">BB1 - BUS BAR PRINCIPAL 480V - 2000A</text>

  <line x1="200" y1="405" x2="200" y2="440" stroke="#333" stroke-width="3"/>
  <rect x="190" y="440" width="20" height="25" fill="#333" stroke="#333" stroke-width="2"/>
  <rect x="192" y="442" width="16" height="8" fill="#fff"/>
  <text x="200" y="480" text-anchor="middle" font-size="10" font-weight="bold" fill="#333">CB-1</text>
  <text x="200" y="492" text-anchor="middle" font-size="9" fill="#666">400A ACB</text>
  <line x1="200" y1="465" x2="200" y2="510" stroke="#333" stroke-width="3"/>

  <rect x="180" y="520" width="40" height="50" rx="5" fill="#4a90e2" stroke="#333" stroke-width="2"/>
  <circle cx="200" cy="545" r="15" fill="none" stroke="#fff" stroke-width="2"/>
  <text x="200" y="550" text-anchor="middle" font-size="12" font-weight="bold" fill="#fff">M</text>
  <text x="200" y="585" text-anchor="middle" font-size="10" font-weight="bold" fill="#333">M1</text>
  <text x="200" y="598" text-anchor="middle" font-size="9" fill="#666">Compresseur</text>
  <text x="200" y="610" text-anchor="middle" font-size="9" fill="#666">100HP - 480V</text>

  <line x1="400" y1="405" x2="400" y2="440" stroke="#333" stroke-width="3"/>
  <rect x="390" y="440" width="20" height="25" fill="#333" stroke="#333" stroke-width="2"/>
  <rect x="392" y="442" width="16" height="8" fill="#fff"/>
  <text x="400" y="480" text-anchor="middle" font-size="10" font-weight="bold" fill="#333">CB-2</text>
  <text x="400" y="492" text-anchor="middle" font-size="9" fill="#666">200A MCCB</text>
  <line x1="400" y1="465" x2="400" y2="510" stroke="#333" stroke-width="3"/>

  <rect x="375" y="520" width="50" height="50" rx="3" fill="#e8f5e9" stroke="#333" stroke-width="2"/>
  <line x1="380" y1="530" x2="420" y2="530" stroke="#333" stroke-width="2"/>
  <line x1="380" y1="540" x2="420" y2="540" stroke="#333" stroke-width="2"/>
  <line x1="380" y1="550" x2="420" y2="550" stroke="#333" stroke-width="2"/>
  <circle cx="385" cy="560" r="3" fill="#333"/>
  <circle cx="400" cy="560" r="3" fill="#333"/>
  <circle cx="415" cy="560" r="3" fill="#333"/>
  <text x="400" y="585" text-anchor="middle" font-size="10" font-weight="bold" fill="#333">L1</text>
  <text x="400" y="598" text-anchor="middle" font-size="9" fill="#666">Panneau Dist.</text>
  <text x="400" y="610" text-anchor="middle" font-size="9" fill="#666">100A - 480V</text>

  <line x1="600" y1="405" x2="600" y2="440" stroke="#333" stroke-width="3"/>
  <rect x="590" y="440" width="20" height="25" fill="#333" stroke="#333" stroke-width="2"/>
  <rect x="592" y="442" width="16" height="8" fill="#fff"/>
  <text x="600" y="480" text-anchor="middle" font-size="10" font-weight="bold" fill="#333">CB-3</text>
  <text x="600" y="492" text-anchor="middle" font-size="9" fill="#666">150A MCCB</text>
  <line x1="600" y1="465" x2="600" y2="510" stroke="#333" stroke-width="3"/>

  <rect x="580" y="520" width="40" height="50" rx="5" fill="#4a90e2" stroke="#333" stroke-width="2"/>
  <circle cx="600" cy="545" r="15" fill="none" stroke="#fff" stroke-width="2"/>
  <text x="600" y="550" text-anchor="middle" font-size="12" font-weight="bold" fill="#fff">M</text>
  <text x="600" y="585" text-anchor="middle" font-size="10" font-weight="bold" fill="#333">M2</text>
  <text x="600" y="598" text-anchor="middle" font-size="9" fill="#666">Ventilateur HVAC</text>
  <text x="600" y="610" text-anchor="middle" font-size="9" fill="#666">50HP - 480V</text>

  <rect x="10" y="10" width="180" height="60" fill="#fff9e6" stroke="#f39c12" stroke-width="2" rx="5"/>
  <text x="20" y="30" font-size="11" font-weight="bold" fill="#333">LÉGENDE:</text>
  <text x="20" y="45" font-size="9" fill="#666">• DS: Disconnect Switch</text>
  <text x="20" y="58" font-size="9" fill="#666">• CB: Circuit Breaker</text>
  <text x="20" y="71" font-size="9" fill="#666">• M: Motor / L: Load</text>

  <rect x="610" y="10" width="180" height="60" fill="#e3f2fd" stroke="#2196f3" stroke-width="2" rx="5"/>
  <text x="620" y="30" font-size="11" font-weight="bold" fill="#333">CAPACITÉ TOTALE:</text>
  <text x="620" y="45" font-size="9" fill="#666">Transformateur: 1000kVA</text>
  <text x="620" y="58" font-size="9" fill="#666">Charge installée: 250kVA</text>
  <text x="620" y="71" font-size="9" fill="#666">Facteur de charge: 25%</text>
</svg>